<svg width="24" height="24" viewBox="0 0 24 24" fill="none" xmlns="http://www.w3.org/2000/svg">
<path d="M20.4983 11V17C20.4983 17.14 20.4983 17.28 20.4883 17.42" stroke="#808191" stroke-width="1.5" stroke-linecap="round" stroke-linejoin="round"/>
<path d="M3.5 18V7C3.5 3 4.5 2 8.5 2H15.5C19.5 2 20.5 3 20.5 7" stroke="#808191" stroke-width="1.5" stroke-linecap="round" stroke-linejoin="round"/>
<path d="M6.35 15H20.5V18.5C20.5 19.4283 20.1313 20.3185 19.4749 20.9749C18.8185 21.6313 17.9283 22 17 22H7C6.07174 22 5.1815 21.6313 4.52513 20.9749C3.86875 20.3185 3.5 19.4283 3.5 18.5V17.85C3.50132 17.0945 3.80201 16.3704 4.33621 15.8362C4.8704 15.302 5.59454 15.0013 6.35 15Z" stroke="#808191" stroke-width="1.5" stroke-linecap="round" stroke-linejoin="round"/>
<path d="M8 7H16" stroke="#808191" stroke-width="1.5" stroke-linecap="round" stroke-linejoin="round"/>
<path d="M8 10.5H13" stroke="#808191" stroke-width="1.5" stroke-linecap="round" stroke-linejoin="round"/>
</svg>
