<svg width="24" height="24" viewBox="0 0 24 24" fill="none" xmlns="http://www.w3.org/2000/svg">
<path d="M17.3719 10.17L18.7119 8.75004C20.1319 7.25004 20.7719 5.54004 18.5619 3.45004C16.3519 1.36004 14.6819 2.10004 13.2619 3.60004L5.0519 12.29C4.7069 12.6996 4.47582 13.1928 4.3819 13.72L4.0119 16.963C3.9634 17.215 3.97918 17.4752 4.05779 17.7195C4.1364 17.9637 4.27531 18.1843 4.46168 18.3607C4.64805 18.5371 4.87588 18.6637 5.1241 18.7287C5.37233 18.7938 5.63295 18.7953 5.8819 18.733L9.1019 18.183C9.62624 18.0679 10.1078 17.8081 10.4919 17.433L14.4419 13.253" stroke="#292D32" stroke-width="1.5" stroke-linecap="round" stroke-linejoin="round"/>
<path d="M11.8906 5.04999C12.1003 6.39084 12.7492 7.62412 13.7356 8.55623C14.722 9.48835 15.9901 10.0665 17.3406 10.2" stroke="#292D32" stroke-width="1.5" stroke-linecap="round" stroke-linejoin="round"/>
<path d="M3 22H14" stroke="#292D32" stroke-width="1.5" stroke-linecap="round" stroke-linejoin="round"/>
<path d="M18 22H21" stroke="#292D32" stroke-width="1.5" stroke-linecap="round" stroke-linejoin="round"/>
</svg>
