<svg width="18" height="18" viewBox="0 0 18 18" fill="none" xmlns="http://www.w3.org/2000/svg">
<path d="M13.4472 18H2.53619C1.92827 17.9985 1.3457 17.7563 0.915834 17.3264C0.485969 16.8965 0.243771 16.314 0.242188 15.706V4.79504C0.243771 4.18712 0.485969 3.60455 0.915834 3.17468C1.3457 2.74482 1.92827 2.50262 2.53619 2.50104H7.99219C8.18712 2.50104 8.37407 2.57848 8.51191 2.71631C8.64975 2.85415 8.72719 3.0411 8.72719 3.23604C8.72719 3.43097 8.64975 3.61792 8.51191 3.75576C8.37407 3.8936 8.18712 3.97104 7.99219 3.97104H2.53619C2.31773 3.9713 2.1083 4.0582 1.95382 4.21267C1.79935 4.36715 1.71245 4.57658 1.71219 4.79504V15.706C1.71245 15.9245 1.79935 16.1339 1.95382 16.2884C2.1083 16.4429 2.31773 16.5298 2.53619 16.53H13.4472C13.6656 16.5298 13.8751 16.4429 14.0296 16.2884C14.184 16.1339 14.2709 15.9245 14.2712 15.706V10.251C14.2712 10.0561 14.3486 9.86915 14.4865 9.73131C14.6243 9.59347 14.8113 9.51604 15.0062 9.51604C15.2011 9.51604 15.3881 9.59347 15.5259 9.73131C15.6638 9.86915 15.7412 10.0561 15.7412 10.251V15.707C15.7393 16.3148 15.497 16.8971 15.0672 17.3267C14.6374 17.7564 14.0549 17.9985 13.4472 18Z" fill="#393C46"/>
<path d="M15.0047 0.848033C15.4771 0.847863 15.939 0.987825 16.3319 1.25021C16.7247 1.5126 17.0309 1.88561 17.2117 2.32207C17.3926 2.75852 17.4399 3.2388 17.3476 3.70214C17.2554 4.16548 17.0279 4.59106 16.6937 4.92503L9.29371 12.325C9.19933 12.4192 9.08111 12.4859 8.95171 12.518L5.83471 13.297C5.71163 13.3277 5.5827 13.326 5.46047 13.2921C5.33823 13.2582 5.22685 13.1933 5.13715 13.1036C5.04745 13.0139 4.9825 12.9025 4.9486 12.7803C4.91471 12.658 4.91302 12.5291 4.94371 12.406L5.72271 9.28903C5.75484 9.15964 5.82155 9.04142 5.91571 8.94703L13.3157 1.54703C13.5371 1.32465 13.8003 1.14836 14.0902 1.02838C14.3801 0.908395 14.691 0.847098 15.0047 0.848033ZM8.39371 11.148L15.6537 3.88803C15.7391 3.80267 15.8068 3.70134 15.853 3.58981C15.8992 3.47828 15.923 3.35875 15.923 3.23803C15.923 3.11732 15.8992 2.99778 15.853 2.88626C15.8068 2.77473 15.7391 2.67339 15.6537 2.58803C15.5684 2.50267 15.467 2.43496 15.3555 2.38877C15.244 2.34257 15.1244 2.31879 15.0037 2.31879C14.883 2.31879 14.7635 2.34257 14.6519 2.38877C14.5404 2.43496 14.4391 2.50267 14.3537 2.58803L7.09371 9.84803L6.66671 11.58L8.39371 11.148Z" fill="#393C46"/>
</svg>
