<svg width="20" height="20" viewBox="0 0 20 20" fill="none" xmlns="http://www.w3.org/2000/svg">
<path d="M10.082 7.40802V10.981" stroke="#292D32" stroke-width="1.5" stroke-linecap="round" stroke-linejoin="round"/>
<path d="M3.56675 5.536C2.46565 7.00424 1.89253 8.80124 1.94026 10.6359C1.98798 12.4705 2.65376 14.2353 3.82971 15.6443C5.00566 17.0533 6.6229 18.0239 8.41941 18.399C10.2159 18.7741 12.0865 18.5316 13.728 17.7109C15.3694 16.8902 16.6857 15.5392 17.4636 13.8769C18.2414 12.2147 18.4352 10.3385 18.0136 8.55233C17.592 6.76617 16.5796 5.17468 15.1405 4.03573C13.7015 2.89677 11.92 2.27706 10.0848 2.277C8.95392 2.27414 7.83521 2.50994 6.80175 2.969" stroke="#292D32" stroke-width="1.5" stroke-linecap="round" stroke-linejoin="round"/>
<path d="M10.0781 13.616H10.0841" stroke="#292D32" stroke-width="2" stroke-linecap="round" stroke-linejoin="round"/>
</svg>
