<svg width="24" height="24" viewBox="0 0 24 24" fill="none" xmlns="http://www.w3.org/2000/svg">
<path d="M4.18036 5.37996C2.60768 7.37475 1.84048 9.88689 2.03036 12.42C2.21791 14.5464 3.04879 16.5653 4.41237 18.2078C5.77595 19.8502 7.60752 21.0383 9.6632 21.6139C11.7189 22.1894 13.9011 22.1251 15.9193 21.4295C17.9375 20.7338 19.6959 19.4399 20.9604 17.72C21.7804 16.61 21.3404 15.87 19.9704 16.12C19.2843 16.2428 18.5867 16.2898 17.8904 16.26C15.5248 16.1553 13.2876 15.1546 11.6329 13.4609C9.97819 11.7672 9.02985 9.50732 8.98036 7.13996C8.97 5.884 9.22561 4.64008 9.73036 3.48996C10.2704 2.24996 9.62036 1.65996 8.37036 2.18996" stroke="#3F8CFF" stroke-width="1.5" stroke-linecap="round" stroke-linejoin="round"/>
</svg>
