<svg width="24" height="24" viewBox="0 0 24 24" fill="none" xmlns="http://www.w3.org/2000/svg">
<path d="M18.0209 11.8V8.91003C18.0209 7.31874 17.3888 5.79261 16.2636 4.66739C15.1383 3.54218 13.6122 2.91003 12.0209 2.91003C10.4296 2.91003 8.9035 3.54218 7.77828 4.66739C6.65306 5.79261 6.02092 7.31874 6.02092 8.91003V11.8C5.98892 12.5209 5.79404 13.2252 5.45092 13.86L4.30092 15.77C4.12918 16.0226 4.0202 16.3124 3.98302 16.6156C3.94585 16.9187 3.98155 17.2263 4.08717 17.5129C4.1928 17.7994 4.36529 18.0566 4.5903 18.2631C4.81532 18.4696 5.08637 18.6194 5.38092 18.7C9.68706 20.14 14.3448 20.14 18.6509 18.7C18.9354 18.6052 19.1948 18.4476 19.4101 18.2389C19.6254 18.0302 19.7911 17.7758 19.8948 17.4945C19.9985 17.2131 20.0376 16.9121 20.0092 16.6136C19.9809 16.3151 19.8857 16.0268 19.7309 15.77" stroke="#808191" stroke-width="1.5" stroke-linecap="round"/>
<path d="M13.8719 3.20024C13.5578 3.10772 13.2368 3.04083 12.9119 3.00024C11.9945 2.87848 11.0619 2.94656 10.1719 3.20024C10.318 2.8287 10.5727 2.50977 10.9026 2.285C11.2326 2.06022 11.6226 1.94 12.0219 1.94C12.4211 1.94 12.8111 2.06022 13.1411 2.285C13.4711 2.50977 13.7257 2.8287 13.8719 3.20024Z" stroke="#808191" stroke-width="1.5" stroke-linecap="round" stroke-linejoin="round"/>
<path d="M15.0195 19.06C15.0172 19.8549 14.7003 20.6166 14.1382 21.1787C13.5761 21.7408 12.8145 22.0576 12.0195 22.06C11.2244 22.0581 10.4623 21.7417 9.89953 21.18C9.33778 20.6172 9.02143 19.8551 9.01953 19.06" stroke="#808191" stroke-width="1.5"/>
</svg>
