<svg width="24" height="24" viewBox="0 0 24 24" fill="none" xmlns="http://www.w3.org/2000/svg">
<path d="M7.00116 7.85C6.0575 8.98757 5.52971 10.4128 5.50483 11.8906C5.47995 13.3684 5.95946 14.8106 6.8643 15.9792C7.76913 17.1479 9.04525 17.9733 10.4822 18.3194C11.9191 18.6654 13.4311 18.5113 14.7688 17.8827C16.1064 17.254 17.1898 16.1882 17.8404 14.861C18.491 13.5339 18.6698 12.0246 18.3474 10.5822C18.025 9.13976 17.2206 7.85027 16.067 6.92638C14.9133 6.00249 13.4792 5.49938 12.0012 5.5" stroke="#3F8CFF" stroke-width="1.5" stroke-linecap="round" stroke-linejoin="round"/>
<path d="M19.0094 4.98999L19.1394 4.85999M4.85938 19.14L4.98938 19.01M4.98938 4.98999L4.85938 4.85999M19.1394 19.14L19.0094 19.01" stroke="#3F8CFF" stroke-width="2" stroke-linecap="round" stroke-linejoin="round"/>
</svg>
