<svg width="24" height="24" viewBox="0 0 24 24" fill="none" xmlns="http://www.w3.org/2000/svg">
<path d="M4 6.00003C2.64838 7.80219 1.94485 10.0079 2.00338 12.2599C2.06191 14.5118 2.87908 16.678 4.32248 18.4075C5.76589 20.137 7.75098 21.3285 9.95612 21.7889C12.1613 22.2494 14.4573 21.9517 16.4721 20.9443C18.487 19.9369 20.1027 18.2786 21.0575 16.2383C22.0122 14.1979 22.2501 11.8949 21.7325 9.7025C21.2149 7.51007 19.9723 5.55661 18.2058 4.15862C16.4394 2.76064 14.2527 2.00003 12 2.00003C10.6118 1.99666 9.23857 2.28631 7.97 2.85003" stroke="#808191" stroke-width="1.5" stroke-linecap="round" stroke-linejoin="round"/>
<path d="M15 10.38L16.12 9.25" stroke="#808191" stroke-width="1.5" stroke-linecap="round" stroke-linejoin="round"/>
<path d="M7.87891 12L10.6189 14.75L13.1689 12.21" stroke="#808191" stroke-width="1.5" stroke-linecap="round" stroke-linejoin="round"/>
</svg>
