<svg width="18" height="18" viewBox="0 0 18 18" fill="none" xmlns="http://www.w3.org/2000/svg">
<path d="M17.2565 3.31901C17.5758 2.99969 17.7552 2.56659 17.7552 2.11501C17.7552 1.66342 17.5758 1.23033 17.2565 0.911011C16.9371 0.59169 16.5041 0.412292 16.0525 0.412292C15.6009 0.412292 15.1678 0.59169 14.8485 0.911011L9.24847 6.51101L3.64847 0.911011C3.32849 0.591425 2.89465 0.412042 2.44241 0.412323C1.99016 0.412604 1.55656 0.592522 1.23697 0.912506C0.917384 1.23249 0.738 1.66632 0.738282 2.11857C0.738563 2.57081 0.918486 3.00442 1.23847 3.32401L6.83847 8.924L1.23847 14.524C0.919149 14.8433 0.739756 15.2764 0.739756 15.728C0.739756 16.1796 0.919149 16.6127 1.23847 16.932C1.55779 17.2513 1.99088 17.4307 2.44247 17.4307C2.89406 17.4307 3.32715 17.2513 3.64647 16.932L9.24647 11.332L14.8465 16.932C15.1658 17.2513 15.5989 17.4307 16.0505 17.4307C16.5021 17.4307 16.9351 17.2513 17.2545 16.932C17.5738 16.6127 17.7532 16.1796 17.7532 15.728C17.7532 15.2764 17.5738 14.8433 17.2545 14.524L11.6545 8.924L17.2565 3.31901Z" fill="#F13E4F"/>
</svg>
