<svg width="24" height="16" viewBox="0 0 24 16" fill="none" xmlns="http://www.w3.org/2000/svg">
<path d="M22.6226 2.50373C22.4927 2.01947 22.2364 1.57749 21.8795 1.22207C21.5226 0.866649 21.0775 0.610276 20.5889 0.47864C18.7959 -2.51872e-06 11.604 0 11.604 0C11.604 0 4.41215 -2.51872e-06 2.61829 0.47864C2.12967 0.610276 1.6846 0.866649 1.32767 1.22207C0.970743 1.57749 0.714491 2.01947 0.584591 2.50373C-0.056192 6.1514 -0.056192 9.8811 0.584591 13.5288C0.715561 14.009 0.972727 14.4463 1.32994 14.7963C1.68715 15.1463 2.13166 15.3965 2.61829 15.5214C4.41215 16 11.604 16 11.604 16C11.604 16 18.7959 16 20.5897 15.5214C21.0763 15.3965 21.5209 15.1463 21.8781 14.7963C22.2353 14.4463 22.4924 14.009 22.6234 13.5288C23.2642 9.8811 23.2634 6.1514 22.6226 2.50373ZM9.25162 11.3997V4.63202L15.2632 8.01584L9.25162 11.3997Z" fill="#20303C"/>
</svg>
